<mxfile host="Electron" modified="2024-07-21T01:22:09.236Z" agent="Mozilla/5.0 (Windows NT 10.0; Win64; x64) AppleWebKit/537.36 (KHTML, like Gecko) draw.io/24.6.4 Chrome/124.0.6367.207 Electron/30.0.6 Safari/537.36" etag="aHFDPe7fdSwNknWRTXHf" version="24.6.4" type="device">
  <diagram name="PÃ¡gina-1" id="jQoiph2c1nl-3ZJ2nl2n">
    <mxGraphModel dx="880" dy="532" grid="1" gridSize="10" guides="1" tooltips="1" connect="1" arrows="1" fold="1" page="1" pageScale="1" pageWidth="827" pageHeight="1169" math="0" shadow="0">
      <root>
        <mxCell id="0" />
        <mxCell id="1" parent="0" />
        <mxCell id="4NPdk0kOYlMQ01f3NqF2-1" value="" style="rounded=0;whiteSpace=wrap;html=1;fillColor=#eeeeee;strokeColor=#36393D;strokeWidth=2;" parent="1" vertex="1">
          <mxGeometry x="14" y="300" width="100" height="160" as="geometry" />
        </mxCell>
        <mxCell id="4NPdk0kOYlMQ01f3NqF2-2" value="&lt;font style=&quot;font-size: 14px;&quot; face=&quot;Courier New&quot;&gt;&lt;b&gt;head&lt;/b&gt;&lt;/font&gt;" style="rounded=0;whiteSpace=wrap;html=1;fillColor=#dae8fc;strokeColor=#6C8EBF;" parent="1" vertex="1">
          <mxGeometry x="38" y="326" width="50" height="40" as="geometry" />
        </mxCell>
        <mxCell id="4NPdk0kOYlMQ01f3NqF2-3" value="" style="endArrow=classic;html=1;rounded=0;exitX=1;exitY=0.5;exitDx=0;exitDy=0;strokeColor=#6C8EBF;entryX=0.5;entryY=0;entryDx=0;entryDy=0;" parent="1" source="4NPdk0kOYlMQ01f3NqF2-2" target="dIiA_UYw8xMWs0kPRB91-1" edge="1">
          <mxGeometry width="50" height="50" relative="1" as="geometry">
            <mxPoint x="260" y="466" as="sourcePoint" />
            <mxPoint x="269.9999999999999" y="355.9999999999999" as="targetPoint" />
            <Array as="points">
              <mxPoint x="334" y="346" />
            </Array>
          </mxGeometry>
        </mxCell>
        <mxCell id="4NPdk0kOYlMQ01f3NqF2-4" value="&lt;font style=&quot;font-size: 16px;&quot; face=&quot;Courier New&quot;&gt;&lt;b&gt;queue&lt;/b&gt;&lt;/font&gt;" style="text;html=1;align=center;verticalAlign=middle;whiteSpace=wrap;rounded=0;" parent="1" vertex="1">
          <mxGeometry x="33" y="460" width="60" height="30" as="geometry" />
        </mxCell>
        <mxCell id="4NPdk0kOYlMQ01f3NqF2-5" value="&lt;font style=&quot;font-size: 14px;&quot; face=&quot;Courier New&quot;&gt;&lt;b&gt;tail&lt;/b&gt;&lt;/font&gt;" style="rounded=0;whiteSpace=wrap;html=1;fillColor=#fad9d5;strokeColor=#ae4132;" parent="1" vertex="1">
          <mxGeometry x="38" y="391" width="50" height="40" as="geometry" />
        </mxCell>
        <mxCell id="4NPdk0kOYlMQ01f3NqF2-6" value="" style="endArrow=classic;html=1;rounded=0;exitX=1;exitY=0.5;exitDx=0;exitDy=0;strokeColor=#AE4132;entryX=0.5;entryY=1;entryDx=0;entryDy=0;" parent="1" source="4NPdk0kOYlMQ01f3NqF2-5" target="dIiA_UYw8xMWs0kPRB91-7" edge="1">
          <mxGeometry width="50" height="50" relative="1" as="geometry">
            <mxPoint x="260" y="531" as="sourcePoint" />
            <mxPoint x="600" y="400" as="targetPoint" />
            <Array as="points">
              <mxPoint x="554" y="412" />
            </Array>
          </mxGeometry>
        </mxCell>
        <mxCell id="oF1Zj8_PvMBWOIYjncnU-1" value="" style="endArrow=none;html=1;rounded=0;strokeWidth=3;" parent="1" edge="1">
          <mxGeometry width="50" height="50" relative="1" as="geometry">
            <mxPoint x="240" y="320" as="sourcePoint" />
            <mxPoint x="660" y="320" as="targetPoint" />
          </mxGeometry>
        </mxCell>
        <mxCell id="oF1Zj8_PvMBWOIYjncnU-2" value="" style="endArrow=none;html=1;rounded=0;strokeWidth=3;" parent="1" edge="1">
          <mxGeometry width="50" height="50" relative="1" as="geometry">
            <mxPoint x="240" y="440" as="sourcePoint" />
            <mxPoint x="660" y="440" as="targetPoint" />
          </mxGeometry>
        </mxCell>
        <mxCell id="b7brVbxsaKchSIfCvL-Y-2" value="&lt;font style=&quot;font-size: 16px;&quot; face=&quot;Courier New&quot;&gt;&lt;b&gt;queue &lt;/b&gt;con elementos&lt;/font&gt;" style="text;html=1;align=center;verticalAlign=middle;whiteSpace=wrap;rounded=0;" parent="1" vertex="1">
          <mxGeometry x="350" y="440" width="210" height="30" as="geometry" />
        </mxCell>
        <mxCell id="dIiA_UYw8xMWs0kPRB91-1" value="&lt;font face=&quot;Courier New&quot;&gt;&lt;span style=&quot;font-size: 14px;&quot;&gt;&lt;b&gt;45&lt;/b&gt;&lt;/span&gt;&lt;/font&gt;" style="rounded=0;whiteSpace=wrap;html=1;fillColor=#d5e8d4;strokeColor=#000000;" parent="1" vertex="1">
          <mxGeometry x="314" y="360" width="40" height="40" as="geometry" />
        </mxCell>
        <mxCell id="dIiA_UYw8xMWs0kPRB91-2" value="" style="rounded=0;whiteSpace=wrap;html=1;fillColor=#fff2cc;strokeColor=#000000;" parent="1" vertex="1">
          <mxGeometry x="354" y="360" width="30" height="40" as="geometry" />
        </mxCell>
        <mxCell id="dIiA_UYw8xMWs0kPRB91-3" value="" style="endArrow=classic;html=1;rounded=0;" parent="1" edge="1">
          <mxGeometry width="50" height="50" relative="1" as="geometry">
            <mxPoint x="369" y="380" as="sourcePoint" />
            <mxPoint x="424" y="380" as="targetPoint" />
          </mxGeometry>
        </mxCell>
        <mxCell id="dIiA_UYw8xMWs0kPRB91-4" value="&lt;font face=&quot;Courier New&quot;&gt;&lt;span style=&quot;font-size: 14px;&quot;&gt;&lt;b&gt;13&lt;/b&gt;&lt;/span&gt;&lt;/font&gt;" style="rounded=0;whiteSpace=wrap;html=1;fillColor=#d5e8d4;strokeColor=#000000;" parent="1" vertex="1">
          <mxGeometry x="424" y="360" width="40" height="40" as="geometry" />
        </mxCell>
        <mxCell id="dIiA_UYw8xMWs0kPRB91-5" value="" style="rounded=0;whiteSpace=wrap;html=1;fillColor=#fff2cc;strokeColor=#000000;" parent="1" vertex="1">
          <mxGeometry x="464" y="360" width="30" height="40" as="geometry" />
        </mxCell>
        <mxCell id="dIiA_UYw8xMWs0kPRB91-6" value="" style="endArrow=classic;html=1;rounded=0;" parent="1" edge="1">
          <mxGeometry width="50" height="50" relative="1" as="geometry">
            <mxPoint x="479" y="380" as="sourcePoint" />
            <mxPoint x="534" y="380" as="targetPoint" />
          </mxGeometry>
        </mxCell>
        <mxCell id="dIiA_UYw8xMWs0kPRB91-7" value="&lt;font face=&quot;Courier New&quot;&gt;&lt;span style=&quot;font-size: 14px;&quot;&gt;&lt;b&gt;7&lt;/b&gt;&lt;/span&gt;&lt;/font&gt;" style="rounded=0;whiteSpace=wrap;html=1;fillColor=#d5e8d4;strokeColor=#000000;" parent="1" vertex="1">
          <mxGeometry x="534" y="360" width="40" height="40" as="geometry" />
        </mxCell>
        <mxCell id="dIiA_UYw8xMWs0kPRB91-8" value="" style="rounded=0;whiteSpace=wrap;html=1;fillColor=#fff2cc;strokeColor=#000000;" parent="1" vertex="1">
          <mxGeometry x="574" y="360" width="30" height="40" as="geometry" />
        </mxCell>
        <mxCell id="dIiA_UYw8xMWs0kPRB91-12" value="" style="endArrow=none;html=1;rounded=0;exitX=1;exitY=1;exitDx=0;exitDy=0;entryX=1;entryY=0;entryDx=0;entryDy=0;" parent="1" source="dIiA_UYw8xMWs0kPRB91-8" target="dIiA_UYw8xMWs0kPRB91-7" edge="1">
          <mxGeometry width="50" height="50" relative="1" as="geometry">
            <mxPoint x="364" y="540" as="sourcePoint" />
            <mxPoint x="414" y="490" as="targetPoint" />
          </mxGeometry>
        </mxCell>
        <mxCell id="dIiA_UYw8xMWs0kPRB91-13" value="" style="shape=flexArrow;endArrow=classic;html=1;rounded=0;fillColor=#fad7ac;strokeColor=#b46504;" parent="1" edge="1">
          <mxGeometry width="50" height="50" relative="1" as="geometry">
            <mxPoint x="240" y="379.49999999999994" as="sourcePoint" />
            <mxPoint x="190" y="379.84" as="targetPoint" />
          </mxGeometry>
        </mxCell>
        <mxCell id="dIiA_UYw8xMWs0kPRB91-14" value="" style="shape=flexArrow;endArrow=classic;html=1;rounded=0;fillColor=#fad9d5;strokeColor=#ae4132;" parent="1" edge="1">
          <mxGeometry width="50" height="50" relative="1" as="geometry">
            <mxPoint x="710" y="379.49999999999994" as="sourcePoint" />
            <mxPoint x="660" y="379.84" as="targetPoint" />
          </mxGeometry>
        </mxCell>
        <mxCell id="jUZctOI7wxVW2uPfKpjA-1" value="&lt;font face=&quot;Courier New&quot;&gt;&lt;span style=&quot;font-size: 14px;&quot;&gt;&lt;b&gt;19&lt;/b&gt;&lt;/span&gt;&lt;/font&gt;" style="rounded=0;whiteSpace=wrap;html=1;fillColor=#d5e8d4;strokeColor=#000000;" parent="1" vertex="1">
          <mxGeometry x="140" y="360" width="40" height="40" as="geometry" />
        </mxCell>
      </root>
    </mxGraphModel>
  </diagram>
</mxfile>
